<svg xmlns="http://www.w3.org/2000/svg" width="1070.066" height="119.25" viewBox="0 0 1070.066 119.25">
  <defs>
    <style>
      .cls-1 {
        fill: #fff;
        stroke: #000;
        stroke-width: 0;
        fill-rule: evenodd;
      }
    </style>
  </defs>
  <path id="DANIEL_PINTO" data-name="DANIEL PINTO" class="cls-1" d="M452.231,760.853a61.489,61.489,0,0,0,21.3-3.675,52.994,52.994,0,0,0,17.7-10.65,50.514,50.514,0,0,0,12.075-16.8,53.325,53.325,0,0,0,4.425-22.125,66.468,66.468,0,0,0-3.3-20.55,52.948,52.948,0,0,0-10.425-18.45,50.221,50.221,0,0,0-18.825-13.2q-11.7-4.95-28.35-4.95h-33v110.4h38.4Zm-16.65-89.55h17.7a36.988,36.988,0,0,1,9.15,1.425,32,32,0,0,1,10.575,5.175,29.412,29.412,0,0,1,8.7,10.575q3.522,6.828,3.525,17.625,0,11.1-4.575,18.6a28.872,28.872,0,0,1-12.825,11.325,45.61,45.61,0,0,1-19.35,3.825h-12.9V671.3Zm95.4,89.55,38.1-91.5-15.75,10.8,31.8,80.7h25.2l-49.8-114.75h-1.2l-49.8,114.75h21.45Zm5.85-21.6h47.55l-7.65-18.3h-33.15Zm189,26.1v-114.9h-21.9l0.45,68.85,4.8,2.1-81.9-75.3h-0.9v114.75h22.05l-0.45-67.5-6.45-3.6,83.7,75.6h0.6Zm28.5-4.5h21.75v-110.4h-21.75v110.4Zm50.249,0h77.4v-21H826.33V716h47.4V695h-47.4v-23.55h53.55v-21h-75.3v110.4Zm99.9,0h73.65v-21h-51.9v-89.4h-21.75v110.4Zm115.642-110.4v110.4h21.75V725.9h15.6q10.8,0,18.23-3.375a31.457,31.457,0,0,0,11.85-8.925,36.134,36.134,0,0,0,6.45-12.375,47.517,47.517,0,0,0,2.02-13.575q0-16.948-10.95-27.075t-31.5-10.125h-33.45Zm21.75,54.3v-33.3h15.6a18.154,18.154,0,0,1,9.08,1.95,13.317,13.317,0,0,1,5.02,4.8,17.926,17.926,0,0,1,2.18,5.625,25.078,25.078,0,0,1,.52,4.425,18.986,18.986,0,0,1-3.52,10.425,14.4,14.4,0,0,1-5.18,4.35,17.675,17.675,0,0,1-8.25,1.725h-15.45Zm73.65,56.1h21.75v-110.4h-21.75v110.4Zm149.7,4.5v-114.9h-21.9l0.45,68.85,4.8,2.1-81.9-75.3h-0.9v114.75h22.05l-0.45-67.5-6.45-3.6,83.7,75.6h0.6Zm21-93.9h25.8v89.4h21.75v-89.4h26.85v-21h-74.4v21Zm89.25,56.25a56.506,56.506,0,0,0,30,30,56.925,56.925,0,0,0,43.65,0,58.135,58.135,0,0,0,18.08-12.075,56.162,56.162,0,0,0,12.3-17.925,54.42,54.42,0,0,0,4.42-21.9,53.7,53.7,0,0,0-4.42-21.6,57.979,57.979,0,0,0-12.3-18.075,59.076,59.076,0,0,0-18.08-12.375,55.175,55.175,0,0,0-43.65,0,57.2,57.2,0,0,0-17.92,12.375,58.191,58.191,0,0,0-12.08,18.075,54.5,54.5,0,0,0-4.35,21.6A55.233,55.233,0,0,0,1375.47,727.7Zm22.65-39.975a34.618,34.618,0,0,1,12.15-12.75,33.851,33.851,0,0,1,34.5,0,34.618,34.618,0,0,1,12.15,12.75,38.521,38.521,0,0,1,.15,35.85,33.614,33.614,0,0,1-11.92,12.75,31.524,31.524,0,0,1-17.03,4.725,33.2,33.2,0,0,1-17.55-4.725,34.777,34.777,0,0,1-12.37-12.75,35.248,35.248,0,0,1-4.58-17.775A36.321,36.321,0,0,1,1398.12,687.728Z" transform="translate(-413.844 -646.094)"/>
</svg>
